<svg width="200mm" height="200mm" viewBox="0 0 200 200" xmlns:xlink="http://www.w3.org/1999/xlink" xmlns="http://www.w3.org/2000/svg"><defs><linearGradient id="b"><stop style="stop-color:#171717;stop-opacity:1" offset="0"/></linearGradient><linearGradient id="a"><stop style="stop-color:#fff;stop-opacity:1" offset="0"/></linearGradient><linearGradient xlink:href="#a" id="d" x1="47.316" y1="111.346" x2="71.231" y2="111.346" gradientUnits="userSpaceOnUse" gradientTransform="matrix(1.0656 0 0 1.01216 -8.094 20.512)"/><linearGradient xlink:href="#a" id="e" gradientUnits="userSpaceOnUse" gradientTransform="matrix(-1.02 0 0 1.01216 208.271 20.347)" x1="47.316" y1="111.346" x2="71.231" y2="111.346"/><linearGradient xlink:href="#b" id="c" x1="44.261" y1="55.104" x2="158.073" y2="55.104" gradientUnits="userSpaceOnUse" gradientTransform="matrix(1.0331 0 0 .99903 -3.05 8.415)"/></defs><g transform="matrix(.85659 0 0 .85659 13.412 19.224)"><rect style="fill:#1e1e1e;fill-opacity:1;stroke-width:.264583" width="15.508" height="20.572" x="48.424" y="153.65" ry="2.69" rx="1.899"/><rect style="fill:#1e1e1e;fill-opacity:1;stroke-width:.264583" width="15.508" height="20.572" x="137.675" y="152.55" ry="2.69" rx="1.899"/><rect style="fill:#57b6f6;fill-opacity:1;stroke:#57b6f6;stroke-width:9.75865;stroke-miterlimit:4;stroke-dasharray:none;stroke-opacity:1" width="119.351" height="135.069" x="41.994" y="23.305" ry="18.236" rx="14.416"/><g transform="matrix(1.02 0 0 1.01216 -1.765 -4.8)" style="fill:#b3b3b3;fill-opacity:1"><rect style="fill:#b3b3b3;fill-opacity:1;stroke-width:.264583" width="117.103" height="95.265" x="42.727" y="27.851" rx="18.04" ry="16.141"/><rect style="fill:#b3b3b3;fill-opacity:1;stroke-width:.264583" width="117.103" height="43.043" x="42.727" y="80.073" rx="0" ry="2.057"/></g><rect style="fill:#4d4d4d;fill-opacity:1;stroke-width:0;stroke-linecap:square;stroke-linejoin:round;stroke-miterlimit:4;stroke-dasharray:none;stroke-dashoffset:0;paint-order:markers fill stroke" width="122.921" height="10.48" x="42.1" y="83.518" rx="0" ry="0"/><rect style="fill:#4d4d4d;fill-opacity:1;stroke-width:0;stroke-linecap:square;stroke-linejoin:round;stroke-miterlimit:4;stroke-dasharray:none;stroke-dashoffset:0;paint-order:markers fill stroke" width="122.449" height="12.704" x="41.114" y="36.039" rx="1.467" ry="11.905"/><rect style="fill:#bae3ff;fill-opacity:1;stroke:url(#c);stroke-width:3.42572;stroke-miterlimit:4;stroke-dasharray:none;stroke-opacity:1" width="116.162" height="42.244" x="43.385" y="42.343" rx="2.326" ry="1.339"/><path style="fill:url(#d);fill-opacity:1;stroke:#000;stroke-width:0;stroke-linecap:square;stroke-linejoin:round;stroke-miterlimit:4;stroke-dasharray:none;stroke-dashoffset:0;stroke-opacity:1;paint-order:markers fill stroke" d="m42.326 126.705.822 13.534s12.649 1.96 18.085-.52c2.92-1.333 6.303-7.028 6.303-7.028l.274-6.507z"/><path style="fill:url(#e);fill-opacity:1;stroke:#000;stroke-width:0;stroke-linecap:square;stroke-linejoin:round;stroke-miterlimit:4;stroke-dasharray:none;stroke-dashoffset:0;stroke-opacity:1;paint-order:markers fill stroke" d="m160.01 126.54-.787 13.535s-12.108 1.96-17.312-.52c-2.795-1.333-6.032-7.028-6.032-7.028l-.263-6.507z"/><g transform="matrix(1.02 0 0 1.01216 -140.172 -6.723)"><rect style="fill:#4d4d4d;fill-opacity:1;stroke-width:0;stroke-linecap:square;stroke-linejoin:round;stroke-miterlimit:4;stroke-dasharray:none;stroke-dashoffset:0;paint-order:markers fill stroke" width="22.002" height="10.546" x="208.42" y="147.339" rx="1.546" ry="1.609"/><path style="fill:#4d4d4d;fill-opacity:1;stroke:#000;stroke-width:0;stroke-linecap:butt;stroke-linejoin:miter;stroke-miterlimit:4;stroke-dasharray:none;stroke-opacity:1" d="m221.603 157.794-24.274 1.182 11.091-11.637h17.547z"/></g><g transform="matrix(-1.02 0 0 1.01216 63.936 -7.275)"><rect style="fill:#4d4d4d;fill-opacity:1;stroke-width:0;stroke-linecap:square;stroke-linejoin:round;stroke-miterlimit:4;stroke-dasharray:none;stroke-dashoffset:0;paint-order:markers fill stroke" width="22.002" height="10.546" x="-63.499" y="147.339" rx="1.546" ry="1.609"/><path style="fill:#4d4d4d;fill-opacity:1;stroke:#000;stroke-width:0;stroke-linecap:butt;stroke-linejoin:miter;stroke-miterlimit:4;stroke-dasharray:none;stroke-opacity:1" d="m-50.316 157.794-24.275 1.182 11.092-11.637h17.547z"/></g><rect style="fill:#f9f9f9;fill-opacity:1;stroke-width:0;stroke-linecap:square;stroke-linejoin:round;stroke-miterlimit:4;stroke-dasharray:none;stroke-dashoffset:0;paint-order:markers fill stroke" width="19.019" height="11.599" x="91.789" y="139.693" rx="1.576" ry="1.848"/><rect style="fill:#4d4d4d;fill-opacity:1;stroke-width:0;stroke-linecap:square;stroke-linejoin:round;stroke-miterlimit:4;stroke-dasharray:none;stroke-dashoffset:0;paint-order:markers fill stroke" width="62.007" height="11.001" x="70.857" y="122.59" rx="31.004" ry="3.343"/><rect style="fill:#4d4d4d;fill-opacity:1;stroke-width:0;stroke-linecap:square;stroke-linejoin:round;stroke-miterlimit:4;stroke-dasharray:none;stroke-dashoffset:0;paint-order:markers fill stroke" width="62.207" height="10.569" x="70.857" y="127.551" rx="2.008" ry="2.441"/><path style="fill:gray;fill-opacity:1;stroke-width:0;stroke-linecap:square;stroke-linejoin:round;stroke-miterlimit:4;stroke-dasharray:none;stroke-dashoffset:0;paint-order:markers fill stroke" d="M94.486 120.275c-.61 0-1.101 1.36-1.101 3.047v1.18c0 1.688.491 3.047 1.1 3.047h12.657c.61 0 1.101-1.36 1.101-3.047v-1.18c0-1.688-.49-3.047-1.1-3.047h-1.538a5.544 2.949 0 0 1-4.902 1.573 5.544 2.949 0 0 1-4.902-1.573z"/><rect style="fill:none;fill-opacity:1;stroke:#57b6f6;stroke-width:10.1626;stroke-miterlimit:4;stroke-dasharray:none;stroke-opacity:1" width="129.654" height="134.842" x="35.927" y="23.419" ry="18.205" rx="15.661"/></g></svg>