<svg width="100" height="100" xmlns="http://www.w3.org/2000/svg"><g style="opacity:1"><rect style="fill:#d40000;stroke-width:9.4713;stroke-linecap:square;stroke-linejoin:round;paint-order:markers fill stroke" width="78.151" height="45.232" x="11.888" y="28.4" rx="3.625" ry="3.982"/><rect style="fill:#fff;stroke-width:9.64024;stroke-linecap:square;stroke-linejoin:round;paint-order:markers fill stroke" width="35.346" height="37.571" x="15.713" y="32.208" rx="2.558" ry="3.152"/><rect style="fill:#fff;stroke-width:9.1028;stroke-linecap:square;stroke-linejoin:round;paint-order:markers fill stroke" width="13.947" height="16.102" x="54.813" y="32.208" rx="2.033" ry="1.472"/><rect style="fill:#fff;stroke-width:9.50589;stroke-linecap:square;stroke-linejoin:round;paint-order:markers fill stroke" width="13.654" height="15.988" x="72.536" y="32.25" rx="1.801" ry="1.59"/><rect style="fill:#fff;stroke-width:8.52246;stroke-linecap:square;stroke-linejoin:round;paint-order:markers fill stroke" width="20.326" height="17.93" x="54.77" y="51.943" rx="1.95" ry="1.18"/><rect style="fill:#fff;stroke-width:8.68022;stroke-linecap:square;stroke-linejoin:round;paint-order:markers fill stroke" width="7.24" height="17.889" x="78.948" y="51.975" rx=".767" ry=".647"/><ellipse style="fill:#d40000;stroke-width:9.5781;stroke-linecap:square;stroke-linejoin:round;paint-order:markers fill stroke" cx="33.041" cy="51.589" rx="5.677" ry="5.734"/><path style="fill:#d40000;stroke-width:7.42677;stroke-linecap:square;stroke-linejoin:round;paint-order:markers fill stroke" d="M74.673 61.062a9.71 7.38 0 0 1-9.318 7.374 9.71 7.38 0 0 1-10.07-6.78 9.71 7.38 0 0 1 8.506-7.92 9.71 7.38 0 0 1 10.756 6.14"/><rect style="fill:#d40000;stroke-width:9.35436;stroke-linecap:square;stroke-linejoin:round;paint-order:markers fill stroke" width="10.438" height="4.219" x="56.913" y="35.044" rx="1.033" ry=".98"/><rect style="fill:#d40000;stroke-width:9.3832;stroke-linecap:square;stroke-linejoin:round;paint-order:markers fill stroke" width="3.232" height="10.356" x="75.42" y="34.597" rx="1.039" ry=".98"/><rect style="fill:#d40000;stroke-width:9.3832;stroke-linecap:square;stroke-linejoin:round;paint-order:markers fill stroke" width="3.232" height="10.356" x="80.2" y="34.597" rx="1.039" ry=".98"/><rect style="fill:#d40000;stroke-width:8.30118;stroke-linecap:square;stroke-linejoin:round;paint-order:markers fill stroke" width="1.754" height="13.686" x="58.229" y="87.748" rx=".681" ry=".646" transform="matrix(.88873 -.45844 .31184 .95014 0 0)"/><rect style="opacity:1;fill:#d40000;stroke-width:8.30118;stroke-linecap:square;stroke-linejoin:round;paint-order:markers fill stroke" width="1.754" height="13.686" x="60.438" y="84.911" rx=".681" ry=".646" transform="matrix(.88873 -.45844 .31184 .95014 0 0)"/><rect style="fill:#d40000;stroke-width:9.35436;stroke-linecap:square;stroke-linejoin:round;paint-order:markers fill stroke" width="10.438" height="4.219" x="56.752" y="40.606" rx="1.033" ry=".98"/></g></svg>